# xmcd
#
# Track frame offsets:
#	150
#	19650
#	37875
#	58050
#	73050
#	88125
#	103425
#	122700
#	139725
#	157350
#
# Disc length: 2334 seconds
#
# Revision: 1
# Processed by: cddbd v1.5.2PL0 Copyright (c) Steve Scherf et al.
# Submitted via: EasyCDDAExtractor 12.0.4.1
#
DISCID=93091c0a
DTITLE=Tata Young - One Love
DYEAR=2008
DGENRE=Pop
TTITLE0=One Love
TTITLE1=บุ่มบ่าม
TTITLE2=ต้นเหตุแห่งความเศร้า
TTITLE3=Good Time
TTITLE4=ได้โปรด
TTITLE5=อำ
TTITLE6=สิ่งมีชีวิต...ไม่มีหัวใจ
TTITLE7=I'll Be Your First, Your Last, Your Everything
TTITLE8=สายลมที่มองไม่เห็น
TTITLE9=บ้านเดียวกัน
EXTD=
EXTT0=
EXTT1=
EXTT2=
EXTT3=
EXTT4=
EXTT5=
EXTT6=
EXTT7=
EXTT8=
EXTT9=
PLAYORDER=
